name GIL03_slow3.mot
datacolumns 153
datarows 4
range 0.24166663 0.26666662
endheader

                time	           pelvis_tx	           pelvis_ty	           pelvis_tz	         pelvis_tilt	         pelvis_list	     pelvis_rotation	       hip_flexion_r	     hip_adduction_r	      hip_rotation_r	        knee_angle_r	       ankle_angle_r	    subtalar_angle_r	         mtp_angle_r	       hip_flexion_l	     hip_adduction_l	      hip_rotation_l	        knee_angle_l	       ankle_angle_l	    subtalar_angle_l	         mtp_angle_l	    lumbar_extension	      lumbar_bending	     lumbar_rotation	     ground_force_vx	     ground_force_vy	     ground_force_vz	     ground_force_px	     ground_force_py	     ground_force_pz	     ground_force_vx	     ground_force_vy	     ground_force_vz	     ground_force_px	     ground_force_py	     ground_force_pz	     ground_torque_x	     ground_torque_y	     ground_torque_z	     ground_torque_x	     ground_torque_y	     ground_torque_z	    ground_marker_px	    ground_marker_py	    ground_marker_pz	    ground_marker_px	    ground_marker_py	    ground_marker_pz	    ground_marker_px	    ground_marker_py	    ground_marker_pz	    ground_marker_px	    ground_marker_py	    ground_marker_pz	    ground_marker_px	    ground_marker_py	    ground_marker_pz	    ground_marker_px	    ground_marker_py	    ground_marker_pz	    ground_marker_px	    ground_marker_py	    ground_marker_pz	    ground_marker_px	    ground_marker_py	    ground_marker_pz	    ground_marker_px	    ground_marker_py	    ground_marker_pz	    ground_marker_px	    ground_marker_py	    ground_marker_pz	    ground_marker_px	    ground_marker_py	    ground_marker_pz	    ground_marker_px	    ground_marker_py	    ground_marker_pz	    ground_marker_px	    ground_marker_py	    ground_marker_pz	    ground_marker_px	    ground_marker_py	    ground_marker_pz	    ground_marker_px	    ground_marker_py	    ground_marker_pz	    ground_marker_px	    ground_marker_py	    ground_marker_pz	    ground_marker_px	    ground_marker_py	    ground_marker_pz	    ground_marker_px	    ground_marker_py	    ground_marker_pz	    ground_marker_px	    ground_marker_py	    ground_marker_pz	    ground_marker_px	    ground_marker_py	    ground_marker_pz	    ground_marker_px	    ground_marker_py	    ground_marker_pz	    ground_marker_px	    ground_marker_py	    ground_marker_pz	    ground_marker_px	    ground_marker_py	    ground_marker_pz	    ground_marker_px	    ground_marker_py	    ground_marker_pz	    ground_marker_px	    ground_marker_py	    ground_marker_pz	    ground_marker_px	    ground_marker_py	    ground_marker_pz	    ground_marker_px	    ground_marker_py	    ground_marker_pz	    ground_marker_px	    ground_marker_py	    ground_marker_pz	    ground_marker_px	    ground_marker_py	    ground_marker_pz	    ground_marker_px	    ground_marker_py	    ground_marker_pz	    ground_marker_px	    ground_marker_py	    ground_marker_pz	    ground_marker_px	    ground_marker_py	    ground_marker_pz	    ground_marker_px	    ground_marker_py	    ground_marker_pz	    ground_marker_px	    ground_marker_py	    ground_marker_pz	    ground_marker_px	    ground_marker_py	    ground_marker_pz	    ground_marker_px	    ground_marker_py	    ground_marker_pz	    ground_marker_px	    ground_marker_py	    ground_marker_pz	
          0.24166663	          0.76250494	          0.89661205	         -0.20456800	          3.04399490	         -3.20457792	         -1.09018123	         10.42944908	          6.08242178	          2.73543644	        -15.70820332	          3.38849998	          0.00000000	          0.00000000	          0.35835457	         -9.83896637	        -11.43419170	        -52.70666885	        -10.45367527	          0.00000000	          0.00000000	        -17.08582306	          3.61691165	         -0.29729798	        -36.59107986	        401.23521930	        -16.61716339	          0.80237256	          0.00000000	         -0.16232637	          0.00000000	          0.00000000	          0.00000000	          1.11125049	          0.00000000	         -0.24210638	          0.00000000	         -0.78025409	          0.00000000	          0.00000000	          0.00000000	          0.00000000	          0.70542866	          0.83470547	         -0.20373380	          0.70894670	          0.81943977	         -0.14198746	          0.70025307	          0.81105524	         -0.25883669	          0.79581016	          0.45727593	         -0.15958062	          0.72277415	          0.44144064	         -0.30086461	          0.78016579	          0.06263082	         -0.17894788	          0.42115906	          0.17942904	         -0.29822338	          0.76250494	          0.89661205	         -0.20456800	          0.76149267	          0.90244603	         -0.10445374	          0.76351720	          0.89077806	         -0.30468225	          0.60420984	          0.92319089	         -0.17856936	          0.60300142	          0.91999382	         -0.23274760	          0.80811888	          0.45762417	         -0.10597675	          0.72574884	          0.44776773	         -0.35491431	          0.78039801	          0.45131153	         -0.20193845	          0.72865146	          0.42216107	         -0.25420052	          0.77368641	          0.06102690	         -0.14103092	          0.41952544	          0.18092211	         -0.33665973	          0.79994625	          0.07735134	         -0.20717131	          0.44287124	          0.17456549	         -0.27468628	          0.63861507	          1.33493352	         -0.19571476	          0.73758370	          1.26283395	         -0.14166889	          0.74077237	          1.26304090	         -0.24802746	          0.72417277	          1.27383125	         -0.20045598	          0.78003150	          1.10740972	         -0.19805881	          0.89197385	          0.65870583	         -0.16074935	          0.85420167	          0.61057651	         -0.28077632	          0.81063420	          0.68567967	         -0.10390338	          0.77790147	          0.65320641	         -0.33086932	          0.82159168	          0.60103530	         -0.10637149	          0.78332245	          0.56586868	         -0.33318344	          0.77947789	          0.17649445	         -0.06464595	          0.47904208	          0.29210469	         -0.39488554	          0.78124392	          0.18558837	         -0.10568654	          0.49441981	          0.28321502	         -0.35532695	          0.89513296	          0.03991956	         -0.14518537	          0.46000633	          0.06212069	         -0.30987468	
          0.24999996	          0.76810443	          0.89714772	         -0.20302698	          3.12984753	         -3.24883842	         -1.08897853	          9.87523842	          6.20387506	          2.58340740	        -15.62586117	          3.75014925	          0.00000000	          0.00000000	          1.25638962	        -10.09219837	        -11.45239162	        -54.32823563	        -10.25592327	          0.00000000	          0.00000000	        -17.23045158	          3.66274691	         -0.09878387	        -35.71981757	        405.16627552	        -16.41922478	          0.80355652	          0.00000000	         -0.16185715	          0.00000000	          0.00000000	          0.00000000	          1.11296021	          0.00000000	         -0.24180090	          0.00000000	         -0.76912372	          0.00000000	          0.00000000	          0.00000000	          0.00000000	          0.71107340	          0.83511245	         -0.20208183	          0.71467054	          0.81994295	         -0.14038028	          0.70597309	          0.81145656	         -0.25722191	          0.79853743	          0.45725903	         -0.15847875	          0.73479819	          0.44216576	         -0.30060554	          0.78022414	          0.06269515	         -0.17888170	          0.43063611	          0.18390460	         -0.29776728	          0.76810443	          0.89714772	         -0.20302698	          0.76709700	          0.90305889	         -0.10287280	          0.76911181	          0.89123654	         -0.30318117	          0.60976052	          0.92354310	         -0.17710000	          0.60854810	          0.92023146	         -0.23127078	          0.81071311	          0.45739803	         -0.10484355	          0.73757142	          0.44872981	         -0.35463765	          0.78281218	          0.45223153	         -0.20205277	          0.73995078	          0.42281738	         -0.25406992	          0.77363211	          0.06104153	         -0.14098631	          0.42912295	          0.18526414	         -0.33621350	          0.79987603	          0.07737040	         -0.20707549	          0.45246354	          0.17893019	         -0.27432895	          0.64469355	          1.33538663	         -0.19446070	          0.74371505	          1.26315999	         -0.14068940	          0.74656755	          1.26345515	         -0.24709827	          0.73014653	          1.27422488	         -0.19943924	          0.78581578	          1.10773849	         -0.19736749	          0.89640355	          0.65801281	         -0.15899763	          0.86315584	          0.61325234	         -0.28017026	          0.81522375	          0.68555915	         -0.10227788	          0.78625983	          0.65468282	         -0.33004555	          0.82529116	          0.60084975	         -0.10530940	          0.79272407	          0.56745696	         -0.33266941	          0.78001398	          0.17627475	         -0.06430604	          0.49004927	          0.29547933	         -0.39460897	          0.78181338	          0.18550941	         -0.10532685	          0.50532699	          0.28659290	         -0.35521427	          0.89511043	          0.03986631	         -0.14507172	          0.46864650	          0.06599176	         -0.30994040	
          0.25833330	          0.77362657	          0.89768898	         -0.20151484	          3.21689701	         -3.27621317	         -1.08427596	          9.31157684	          6.30923367	          2.50186825	        -15.51610279	          4.09233522	          0.00000000	          0.00000000	          2.12878609	        -10.30873299	        -11.28285694	        -55.84149170	         -9.72253513	          0.00000000	          0.00000000	        -17.40621376	          3.69451332	          0.10532264	        -34.65477966	        408.97563789	        -15.99807693	          0.80501349	          0.00000000	         -0.16132918	          0.00000000	          0.00000000	          0.00000000	          1.11480188	          0.00000000	         -0.24142810	          0.00000000	         -0.75815601	          0.00000000	          0.00000000	          0.00000000	          0.00000000	          0.71657658	          0.83540940	         -0.20044771	          0.72031933	          0.82043207	         -0.13882442	          0.71161675	          0.81187886	         -0.25566077	          0.80114001	          0.45722187	         -0.15743433	          0.74657726	          0.44302273	         -0.30028057	          0.78028899	          0.06276271	         -0.17881985	          0.44028568	          0.18802787	         -0.29728523	          0.77362657	          0.89768898	         -0.20151484	          0.77262515	          0.90364724	         -0.10131968	          0.77462792	          0.89173067	         -0.30171001	          0.61523414	          0.92389441	         -0.17569757	          0.61404264	          0.92046183	         -0.22993790	          0.81324059	          0.45716545	         -0.10378200	          0.74932468	          0.44981605	         -0.35428569	          0.78512943	          0.45303780	         -0.20233515	          0.75296426	          0.42300037	         -0.25353640	          0.77357966	          0.06106411	         -0.14094706	          0.43895340	          0.18917638	         -0.33574504	          0.79986632	          0.07751337	         -0.20702524	          0.46236575	          0.18295564	         -0.27397326	          0.65071708	          1.33588183	         -0.19326553	          0.74973750	          1.26349211	         -0.13976961	          0.75223947	          1.26388443	         -0.24620461	          0.73602057	          1.27462339	         -0.19846117	          0.79140610	          1.10805881	         -0.19674286	          0.90068185	          0.65730852	         -0.15745853	          0.87187719	          0.61599708	         -0.27907741	          0.81965005	          0.68536049	         -0.10091711	          0.79374474	          0.65609336	         -0.32885200	          0.82884443	          0.60055584	         -0.10447744	          0.80224311	          0.56909788	         -0.33174810	          0.78050470	          0.17608657	         -0.06400605	          0.50126559	          0.29845804	         -0.39442432	          0.78235394	          0.18547440	         -0.10503980	          0.51633132	          0.28973463	         -0.35516265	          0.89509046	          0.03982170	         -0.14497443	          0.47834200	          0.06978299	         -0.30998245	
          0.26666662	          0.77908236	          0.89823496	         -0.20003217	          3.29870892	         -3.28255558	         -1.08120286	          8.75065041	          6.39717817	          2.47702789	        -15.39134026	          4.42091084	          0.00000000	          0.00000000	          2.97523689	        -10.48700619	        -10.93144417	        -57.21429062	         -8.97524929	          0.00000000	          0.00000000	        -17.58740044	          3.71976757	          0.29336032	        -33.49812786	        412.01199882	        -15.33035019	          0.80659943	          0.00000000	         -0.16078717	          0.00000000	          0.00000000	          0.00000000	          1.11675378	          0.00000000	         -0.24099181	          0.00000000	         -0.74940430	          0.00000000	          0.00000000	          0.00000000	          0.00000000	          0.72198868	          0.83567530	         -0.19886562	          0.72588962	          0.82090855	         -0.13733022	          0.71719116	          0.81233108	         -0.25416511	          0.80365610	          0.45716494	         -0.15646407	          0.75808167	          0.44400433	         -0.29990816	          0.78035855	          0.06282832	         -0.17876336	          0.45021766	          0.19166148	         -0.29677731	          0.77908236	          0.89823496	         -0.20003217	          0.77807903	          0.90420431	         -0.09979756	          0.78008568	          0.89226556	         -0.30026680	          0.62064302	          0.92425936	         -0.17436984	          0.61949408	          0.92070639	         -0.22873618	          0.81572282	          0.45692214	         -0.10280462	          0.76098114	          0.45102856	         -0.35387579	          0.78801125	          0.45344573	         -0.20186728	          0.76743966	          0.42290735	         -0.25295678	          0.77353042	          0.06109136	         -0.14091356	          0.44908488	          0.19256616	         -0.33524999	          0.80000114	          0.07756927	         -0.20696668	          0.47267485	          0.18647625	         -0.27356496	          0.65667158	          1.33639205	         -0.19209602	          0.75565833	          1.26383662	         -0.13888356	          0.75784647	          1.26434648	         -0.24537414	          0.74181014	          1.27502632	         -0.19751267	          0.79690993	          1.10840225	         -0.19618089	          0.90482569	          0.65659118	         -0.15610026	          0.88038093	          0.61878300	         -0.27751309	          0.82379013	          0.68528312	         -0.09964288	          0.80043626	          0.65751588	         -0.32722786	          0.83248305	          0.60031790	         -0.10346893	          0.81181902	          0.57096142	         -0.33050501	          0.78096867	          0.17592214	         -0.06373844	          0.51263785	          0.30104411	         -0.39426816	          0.78290349	          0.18547060	         -0.10480585	          0.52741128	          0.29261801	         -0.35509411	          0.89507586	          0.03978097	         -0.14488842	          0.48899978	          0.07333921	         -0.30993545	
